<svg width="244" height="151" viewBox="0 0 244 151" fill="none" xmlns="http://www.w3.org/2000/svg">
<path d="M47.0337 33L59.3938 5H67.1938L79.5938 33H71.3538L61.6738 8.88H64.7938L55.1138 33H47.0337ZM53.7938 27.56L55.8338 21.72H69.5138L71.5538 27.56H53.7938ZM82.6791 33V11.32H89.9191V17.64L88.8391 15.84C89.4791 14.2133 90.5191 13 91.9591 12.2C93.3991 11.3733 95.1457 10.96 97.1991 10.96V17.8C96.8524 17.7467 96.5457 17.72 96.2791 17.72C96.0391 17.6933 95.7724 17.68 95.4791 17.68C93.9324 17.68 92.6791 18.1067 91.7191 18.96C90.7591 19.7867 90.2791 21.1467 90.2791 23.04V33H82.6791ZM101.856 33V5H108.376L119.976 24.04H116.536L127.816 5H134.336L134.416 33H127.136L127.056 16.08H128.296L119.856 30.24H116.336L107.656 16.08H109.176V33H101.856ZM140.86 33V11.32H148.46V33H140.86ZM144.66 8.92C143.274 8.92 142.154 8.53333 141.3 7.76C140.447 6.98667 140.02 6.02667 140.02 4.88C140.02 3.73333 140.447 2.77333 141.3 2C142.154 1.22667 143.274 0.839999 144.66 0.839999C146.047 0.839999 147.167 1.21333 148.02 1.96C148.874 2.68 149.3 3.61333 149.3 4.76C149.3 5.96 148.874 6.96 148.02 7.76C147.194 8.53333 146.074 8.92 144.66 8.92ZM164.039 33.36C162.066 33.36 160.266 32.9067 158.639 32C157.039 31.0667 155.759 29.7733 154.799 28.12C153.839 26.44 153.359 24.44 153.359 22.12C153.359 19.8267 153.839 17.8533 154.799 16.2C155.759 14.52 157.039 13.2267 158.639 12.32C160.266 11.4133 162.066 10.96 164.039 10.96C165.906 10.96 167.479 11.36 168.759 12.16C170.066 12.96 171.053 14.1867 171.719 15.84C172.386 17.4933 172.719 19.5867 172.719 22.12C172.719 24.7067 172.399 26.8267 171.759 28.48C171.119 30.1333 170.159 31.36 168.879 32.16C167.599 32.96 165.986 33.36 164.039 33.36ZM165.639 27.32C166.493 27.32 167.253 27.12 167.919 26.72C168.613 26.32 169.159 25.7333 169.559 24.96C169.959 24.16 170.159 23.2133 170.159 22.12C170.159 21.0267 169.959 20.1067 169.559 19.36C169.159 18.5867 168.613 18 167.919 17.6C167.253 17.2 166.493 17 165.639 17C164.759 17 163.973 17.2 163.279 17.6C162.613 18 162.079 18.5867 161.679 19.36C161.279 20.1067 161.079 21.0267 161.079 22.12C161.079 23.2133 161.279 24.16 161.679 24.96C162.079 25.7333 162.613 26.32 163.279 26.72C163.973 27.12 164.759 27.32 165.639 27.32ZM170.399 33V29.28L170.439 22.12L170.039 14.96V3.32H177.639V33H170.399ZM196.969 33V28.96L196.449 27.96V20.52C196.449 19.32 196.076 18.4 195.329 17.76C194.609 17.0933 193.449 16.76 191.849 16.76C190.809 16.76 189.756 16.9333 188.689 17.28C187.622 17.6 186.716 18.0533 185.969 18.64L183.409 13.48C184.636 12.68 186.102 12.0667 187.809 11.64C189.542 11.1867 191.262 10.96 192.969 10.96C196.489 10.96 199.209 11.7733 201.129 13.4C203.076 15 204.049 17.52 204.049 20.96V33H196.969ZM190.569 33.36C188.836 33.36 187.369 33.0667 186.169 32.48C184.969 31.8933 184.049 31.0933 183.409 30.08C182.796 29.0667 182.489 27.9333 182.489 26.68C182.489 25.3467 182.822 24.2 183.489 23.24C184.182 22.2533 185.236 21.5067 186.649 21C188.062 20.4667 189.889 20.2 192.129 20.2H197.249V24.16H193.169C191.942 24.16 191.076 24.36 190.569 24.76C190.089 25.16 189.849 25.6933 189.849 26.36C189.849 27.0267 190.102 27.56 190.609 27.96C191.116 28.36 191.809 28.56 192.689 28.56C193.516 28.56 194.262 28.36 194.929 27.96C195.622 27.5333 196.129 26.8933 196.449 26.04L197.489 28.84C197.089 30.3333 196.302 31.4667 195.129 32.24C193.982 32.9867 192.462 33.36 190.569 33.36ZM93.0771 72L86.7731 61.344L91.8611 58.336L100.213 72H93.0771ZM78.8051 72V49.6H85.1091V72H78.8051ZM83.2851 63.424V58.304H91.4131V63.424H83.2851ZM92.4691 61.472L86.6131 60.832L93.4931 49.6H100.149L92.4691 61.472ZM101.687 72L101.943 67.04C102.093 67.0613 102.231 67.0827 102.359 67.104C102.487 67.104 102.605 67.104 102.711 67.104C103.245 67.104 103.661 66.976 103.959 66.72C104.279 66.4427 104.514 66.0693 104.663 65.6C104.834 65.1307 104.951 64.5867 105.015 63.968C105.101 63.328 105.154 62.6347 105.175 61.888L105.431 54.656H121.111V72H115.031V58.112L116.375 59.488H109.431L110.711 58.048L110.519 62.144C110.455 63.7013 110.317 65.12 110.103 66.4C109.911 67.6587 109.602 68.736 109.175 69.632C108.749 70.528 108.162 71.2213 107.415 71.712C106.69 72.1813 105.762 72.416 104.631 72.416C104.226 72.416 103.767 72.3733 103.255 72.288C102.765 72.224 102.242 72.128 101.687 72ZM129.357 78.496C128.44 78.496 127.512 78.3467 126.573 78.048C125.656 77.7707 124.909 77.3973 124.333 76.928L126.445 72.672C126.808 72.992 127.224 73.2373 127.693 73.408C128.184 73.6 128.664 73.696 129.133 73.696C129.795 73.696 130.317 73.5467 130.701 73.248C131.085 72.9493 131.416 72.48 131.693 71.84L132.493 69.824L132.973 69.216L138.861 54.656H144.653L137.165 72.704C136.568 74.1973 135.875 75.36 135.085 76.192C134.317 77.0453 133.453 77.6427 132.493 77.984C131.555 78.3253 130.509 78.496 129.357 78.496ZM131.725 72.736L124.077 54.656H130.317L135.949 68.672L131.725 72.736ZM156.548 72.448C155.14 72.448 153.828 72.2453 152.612 71.84C151.417 71.4347 150.372 70.7947 149.476 69.92C148.601 69.0453 147.908 67.904 147.396 66.496C146.905 65.088 146.66 63.3813 146.66 61.376C146.66 60.032 146.777 58.7947 147.012 57.664C147.246 56.5333 147.598 55.4987 148.068 54.56C148.558 53.6 149.177 52.7573 149.924 52.032C150.692 51.3067 151.588 50.6987 152.612 50.208C153.636 49.7173 154.809 49.344 156.132 49.088L164.548 47.488L165.38 52.576L158.084 53.952C157.636 54.0373 157.145 54.144 156.612 54.272C156.1 54.4 155.598 54.592 155.108 54.848C154.617 55.0827 154.158 55.4133 153.732 55.84C153.326 56.2667 152.996 56.832 152.74 57.536C152.505 58.2187 152.388 59.072 152.388 60.096C152.388 60.3947 152.398 60.64 152.42 60.832C152.462 61.0027 152.494 61.2053 152.516 61.44C152.537 61.6533 152.548 61.984 152.548 62.432L150.852 60.864C151.364 59.968 151.972 59.2107 152.676 58.592C153.401 57.9733 154.233 57.4933 155.172 57.152C156.11 56.8107 157.156 56.64 158.308 56.64C159.993 56.64 161.444 56.9707 162.66 57.632C163.876 58.272 164.804 59.168 165.444 60.32C166.105 61.4507 166.436 62.7413 166.436 64.192C166.436 65.8987 166.009 67.3707 165.156 68.608C164.302 69.824 163.129 70.7733 161.636 71.456C160.164 72.1173 158.468 72.448 156.548 72.448ZM156.708 67.84C157.412 67.84 158.02 67.6907 158.532 67.392C159.065 67.0933 159.481 66.6773 159.78 66.144C160.078 65.6107 160.228 65.0133 160.228 64.352C160.228 63.6693 160.078 63.0827 159.78 62.592C159.481 62.1013 159.065 61.7173 158.532 61.44C158.02 61.1627 157.412 61.024 156.708 61.024C156.004 61.024 155.374 61.1627 154.82 61.44C154.286 61.7173 153.87 62.0907 153.572 62.56C153.273 63.0293 153.124 63.5947 153.124 64.256C153.124 64.9173 153.273 65.5253 153.572 66.08C153.87 66.6347 154.286 67.072 154.82 67.392C155.374 67.6907 156.004 67.84 156.708 67.84ZM12.4226 111.448C10.652 111.448 9.00929 111.171 7.49463 110.616C6.00129 110.04 4.69996 109.229 3.59063 108.184C2.50263 107.139 1.64929 105.912 1.03063 104.504C0.41196 103.075 0.102626 101.507 0.102626 99.8C0.102626 98.0933 0.41196 96.536 1.03063 95.128C1.64929 93.6987 2.50263 92.4613 3.59063 91.416C4.69996 90.3707 6.00129 89.5707 7.49463 89.016C9.00929 88.44 10.652 88.152 12.4226 88.152C14.492 88.152 16.3373 88.5147 17.9586 89.24C19.6013 89.9653 20.9666 91.0107 22.0546 92.376L18.0226 96.024C17.2973 95.1707 16.4973 94.52 15.6226 94.072C14.7693 93.624 13.8093 93.4 12.7426 93.4C11.8253 93.4 10.9826 93.5493 10.2146 93.848C9.44663 94.1467 8.78529 94.584 8.23063 95.16C7.69729 95.7147 7.27063 96.3867 6.95063 97.176C6.65196 97.9653 6.50263 98.84 6.50263 99.8C6.50263 100.76 6.65196 101.635 6.95063 102.424C7.27063 103.213 7.69729 103.896 8.23063 104.472C8.78529 105.027 9.44663 105.453 10.2146 105.752C10.9826 106.051 11.8253 106.2 12.7426 106.2C13.8093 106.2 14.7693 105.976 15.6226 105.528C16.4973 105.08 17.2973 104.429 18.0226 103.576L22.0546 107.224C20.9666 108.568 19.6013 109.613 17.9586 110.36C16.3373 111.085 14.492 111.448 12.4226 111.448ZM25.5249 111V93.656H31.5729V102.744L38.8369 93.656H44.4369V111H38.3569V101.88L31.1569 111H25.5249ZM49.4849 111V93.656H55.5329V100.088H61.7729V93.656H67.8529V111H61.7729V104.92H55.5329V111H49.4849ZM70.8656 111L78.8336 100.536L78.7056 103.992L71.0576 93.656H77.9056L82.1936 99.768L79.6336 99.896L84.1776 93.656H90.6096L82.9616 103.768V100.44L90.8336 111H83.8896L79.4096 104.472L81.9696 104.824L77.4576 111H70.8656ZM104.754 111.288C103.282 111.288 102.024 110.968 100.978 110.328C99.933 109.667 99.133 108.685 98.5784 107.384C98.045 106.061 97.7784 104.376 97.7784 102.328C97.7784 100.259 98.0344 98.5733 98.5464 97.272C99.0584 95.9493 99.8264 94.968 100.85 94.328C101.896 93.688 103.197 93.368 104.754 93.368C106.333 93.368 107.762 93.7413 109.042 94.488C110.344 95.2133 111.368 96.248 112.114 97.592C112.882 98.9147 113.266 100.493 113.266 102.328C113.266 104.163 112.882 105.752 112.114 107.096C111.368 108.44 110.344 109.475 109.042 110.2C107.762 110.925 106.333 111.288 104.754 111.288ZM93.8424 117.208V93.656H99.6344V96.6L99.6024 102.328L99.9224 108.088V117.208H93.8424ZM103.474 106.456C104.157 106.456 104.765 106.296 105.298 105.976C105.853 105.656 106.29 105.187 106.61 104.568C106.952 103.949 107.122 103.203 107.122 102.328C107.122 101.453 106.952 100.707 106.61 100.088C106.29 99.4693 105.853 99 105.298 98.68C104.765 98.36 104.157 98.2 103.474 98.2C102.792 98.2 102.173 98.36 101.618 98.68C101.085 99 100.648 99.4693 100.306 100.088C99.9864 100.707 99.8264 101.453 99.8264 102.328C99.8264 103.203 99.9864 103.949 100.306 104.568C100.648 105.187 101.085 105.656 101.618 105.976C102.173 106.296 102.792 106.456 103.474 106.456ZM125.69 111.288C123.791 111.288 122.106 110.904 120.634 110.136C119.162 109.368 117.999 108.312 117.146 106.968C116.314 105.603 115.898 104.045 115.898 102.296C115.898 100.547 116.314 99 117.146 97.656C117.999 96.312 119.162 95.2667 120.634 94.52C122.106 93.752 123.791 93.368 125.69 93.368C127.589 93.368 129.274 93.752 130.746 94.52C132.239 95.2667 133.402 96.312 134.234 97.656C135.066 99 135.482 100.547 135.482 102.296C135.482 104.045 135.066 105.603 134.234 106.968C133.402 108.312 132.239 109.368 130.746 110.136C129.274 110.904 127.589 111.288 125.69 111.288ZM125.69 106.456C126.394 106.456 127.013 106.296 127.546 105.976C128.101 105.656 128.538 105.187 128.858 104.568C129.178 103.928 129.338 103.171 129.338 102.296C129.338 101.421 129.178 100.685 128.858 100.088C128.538 99.4693 128.101 99 127.546 98.68C127.013 98.36 126.394 98.2 125.69 98.2C125.007 98.2 124.389 98.36 123.834 98.68C123.301 99 122.863 99.4693 122.522 100.088C122.202 100.685 122.042 101.421 122.042 102.296C122.042 103.171 122.202 103.928 122.522 104.568C122.863 105.187 123.301 105.656 123.834 105.976C124.389 106.296 125.007 106.456 125.69 106.456ZM139.294 111V93.656H145.342V100.088H151.582V93.656H157.662V111H151.582V104.92H145.342V111H139.294ZM162.722 111V93.656H168.77V100.088H175.01V93.656H181.09V111H175.01V104.92H168.77V111H162.722ZM194.695 111.288C192.796 111.288 191.111 110.904 189.639 110.136C188.167 109.368 187.004 108.312 186.151 106.968C185.319 105.603 184.903 104.045 184.903 102.296C184.903 100.547 185.319 99 186.151 97.656C187.004 96.312 188.167 95.2667 189.639 94.52C191.111 93.752 192.796 93.368 194.695 93.368C196.594 93.368 198.279 93.752 199.751 94.52C201.244 95.2667 202.407 96.312 203.239 97.656C204.071 99 204.487 100.547 204.487 102.296C204.487 104.045 204.071 105.603 203.239 106.968C202.407 108.312 201.244 109.368 199.751 110.136C198.279 110.904 196.594 111.288 194.695 111.288ZM194.695 106.456C195.399 106.456 196.018 106.296 196.551 105.976C197.106 105.656 197.543 105.187 197.863 104.568C198.183 103.928 198.343 103.171 198.343 102.296C198.343 101.421 198.183 100.685 197.863 100.088C197.543 99.4693 197.106 99 196.551 98.68C196.018 98.36 195.399 98.2 194.695 98.2C194.012 98.2 193.394 98.36 192.839 98.68C192.306 99 191.868 99.4693 191.527 100.088C191.207 100.685 191.047 101.421 191.047 102.296C191.047 103.171 191.207 103.928 191.527 104.568C191.868 105.187 192.306 105.656 192.839 105.976C193.394 106.296 194.012 106.456 194.695 106.456ZM208.299 111V93.656H222.827V98.488H213.035L214.347 97.176V111H208.299ZM234.021 111.288C232.123 111.288 230.437 110.904 228.965 110.136C227.493 109.368 226.331 108.312 225.477 106.968C224.645 105.603 224.229 104.045 224.229 102.296C224.229 100.547 224.645 99 225.477 97.656C226.331 96.312 227.493 95.2667 228.965 94.52C230.437 93.752 232.123 93.368 234.021 93.368C235.92 93.368 237.605 93.752 239.077 94.52C240.571 95.2667 241.733 96.312 242.565 97.656C243.397 99 243.813 100.547 243.813 102.296C243.813 104.045 243.397 105.603 242.565 106.968C241.733 108.312 240.571 109.368 239.077 110.136C237.605 110.904 235.92 111.288 234.021 111.288ZM234.021 106.456C234.725 106.456 235.344 106.296 235.877 105.976C236.432 105.656 236.869 105.187 237.189 104.568C237.509 103.928 237.669 103.171 237.669 102.296C237.669 101.421 237.509 100.685 237.189 100.088C236.869 99.4693 236.432 99 235.877 98.68C235.344 98.36 234.725 98.2 234.021 98.2C233.339 98.2 232.72 98.36 232.165 98.68C231.632 99 231.195 99.4693 230.853 100.088C230.533 100.685 230.373 101.421 230.373 102.296C230.373 103.171 230.533 103.928 230.853 104.568C231.195 105.187 231.632 105.656 232.165 105.976C232.72 106.296 233.339 106.456 234.021 106.456ZM34.5756 150V127.6H55.5996V150H49.3276V131.216L50.7356 132.624H39.4396L40.8156 131.216V150H34.5756ZM59.2361 150L59.4921 145.04C59.6415 145.061 59.7801 145.083 59.9081 145.104C60.0361 145.104 60.1535 145.104 60.2601 145.104C60.7935 145.104 61.2095 144.976 61.5081 144.72C61.8281 144.443 62.0628 144.069 62.2121 143.6C62.3828 143.131 62.5001 142.587 62.5641 141.968C62.6495 141.328 62.7028 140.635 62.7241 139.888L62.9801 132.656H78.6601V150H72.5801V136.112L73.9241 137.488H66.9801L68.2601 136.048L68.0681 140.144C68.0041 141.701 67.8655 143.12 67.6521 144.4C67.4601 145.659 67.1508 146.736 66.7241 147.632C66.2975 148.528 65.7108 149.221 64.9641 149.712C64.2388 150.181 63.3108 150.416 62.1801 150.416C61.7748 150.416 61.3161 150.373 60.8041 150.288C60.3135 150.224 59.7908 150.128 59.2361 150ZM93.9781 150V146.768L93.5621 145.968V140.016C93.5621 139.056 93.2635 138.32 92.6661 137.808C92.0901 137.275 91.1621 137.008 89.8821 137.008C89.0501 137.008 88.2075 137.147 87.3541 137.424C86.5008 137.68 85.7755 138.043 85.1781 138.512L83.1301 134.384C84.1115 133.744 85.2848 133.253 86.6501 132.912C88.0368 132.549 89.4128 132.368 90.7781 132.368C93.5941 132.368 95.7701 133.019 97.3061 134.32C98.8635 135.6 99.6421 137.616 99.6421 140.368V150H93.9781ZM88.8581 150.288C87.4715 150.288 86.2981 150.053 85.3381 149.584C84.3781 149.115 83.6421 148.475 83.1301 147.664C82.6395 146.853 82.3941 145.947 82.3941 144.944C82.3941 143.877 82.6608 142.96 83.1941 142.192C83.7488 141.403 84.5915 140.805 85.7221 140.4C86.8528 139.973 88.3141 139.76 90.1061 139.76H94.2021V142.928H90.9381C89.9568 142.928 89.2635 143.088 88.8581 143.408C88.4741 143.728 88.2821 144.155 88.2821 144.688C88.2821 145.221 88.4848 145.648 88.8901 145.968C89.2955 146.288 89.8501 146.448 90.5541 146.448C91.2155 146.448 91.8128 146.288 92.3461 145.968C92.9008 145.627 93.3061 145.115 93.5621 144.432L94.3941 146.672C94.0741 147.867 93.4448 148.773 92.5061 149.392C91.5888 149.989 90.3728 150.288 88.8581 150.288ZM104.26 150V132.656H113.572C115.812 132.656 117.561 133.051 118.82 133.84C120.079 134.608 120.708 135.717 120.708 137.168C120.708 138.555 120.121 139.664 118.948 140.496C117.796 141.307 116.239 141.712 114.276 141.712L114.82 140.432C116.932 140.432 118.521 140.827 119.588 141.616C120.676 142.384 121.22 143.515 121.22 145.008C121.22 146.544 120.623 147.76 119.428 148.656C118.255 149.552 116.452 150 114.02 150H104.26ZM109.7 146.064H113.476C114.223 146.064 114.777 145.936 115.14 145.68C115.503 145.403 115.684 144.997 115.684 144.464C115.684 143.909 115.503 143.504 115.14 143.248C114.799 142.992 114.265 142.864 113.54 142.864H109.7V146.064ZM109.7 139.632H113.028C113.753 139.632 114.287 139.504 114.628 139.248C114.969 138.971 115.14 138.576 115.14 138.064C115.14 137.552 114.969 137.179 114.628 136.944C114.287 136.688 113.753 136.56 113.028 136.56H109.7V139.632ZM135.523 150V146.768L135.107 145.968V140.016C135.107 139.056 134.808 138.32 134.211 137.808C133.635 137.275 132.707 137.008 131.427 137.008C130.595 137.008 129.752 137.147 128.899 137.424C128.046 137.68 127.32 138.043 126.723 138.512L124.675 134.384C125.656 133.744 126.83 133.253 128.195 132.912C129.582 132.549 130.958 132.368 132.323 132.368C135.139 132.368 137.315 133.019 138.851 134.32C140.408 135.6 141.187 137.616 141.187 140.368V150H135.523ZM130.403 150.288C129.016 150.288 127.843 150.053 126.883 149.584C125.923 149.115 125.187 148.475 124.675 147.664C124.184 146.853 123.939 145.947 123.939 144.944C123.939 143.877 124.206 142.96 124.739 142.192C125.294 141.403 126.136 140.805 127.267 140.4C128.398 139.973 129.859 139.76 131.651 139.76H135.747V142.928H132.483C131.502 142.928 130.808 143.088 130.403 143.408C130.019 143.728 129.827 144.155 129.827 144.688C129.827 145.221 130.03 145.648 130.435 145.968C130.84 146.288 131.395 146.448 132.099 146.448C132.76 146.448 133.358 146.288 133.891 145.968C134.446 145.627 134.851 145.115 135.107 144.432L135.939 146.672C135.619 147.867 134.99 148.773 134.051 149.392C133.134 149.989 131.918 150.288 130.403 150.288ZM145.805 150V132.656H151.853V139.088H158.093V132.656H164.173V150H158.093V143.92H151.853V150H145.805ZM169.234 150V132.656H175.282V141.744L182.546 132.656H188.146V150H182.066V140.88L174.866 150H169.234ZM204.106 150V144.368L204.906 145.296H200.49C197.908 145.296 195.871 144.773 194.378 143.728C192.884 142.661 192.138 141.147 192.138 139.184C192.138 137.093 192.916 135.483 194.474 134.352C196.031 133.221 198.132 132.656 200.778 132.656H209.514V150H204.106ZM191.85 150L196.426 143.408H202.57L198.282 150H191.85ZM204.106 142.544V135.952L204.906 137.456H200.906C200.095 137.456 199.466 137.616 199.018 137.936C198.57 138.235 198.346 138.725 198.346 139.408C198.346 140.731 199.188 141.392 200.874 141.392H204.906L204.106 142.544Z" fill="black"/>
</svg>
